<svg xmlns="http://www.w3.org/2000/svg" width="931" height="832" fill="none" viewBox="0 0 931 832">
  <path fill="url(#paint0_linear)" fill-opacity=".95" d="M0 35C0 15.67 15.67 0 35 0h861c19.33 0 35 15.67 35 35v761.916c0 19.748-16.328 35.586-36.067 34.984l-861-26.263C15.027 805.061 0 789.568 0 770.654V35z"/>
  <path fill="url(#paint1_radial)" fill-opacity=".2" d="M0 35C0 15.67 15.67 0 35 0h861c19.33 0 35 15.67 35 35v761.916c0 19.748-16.328 35.586-36.067 34.984l-861-26.263C15.027 805.061 0 789.568 0 770.654V35z"/>
  <defs>
    <radialGradient id="paint1_radial" cx="0" cy="0" r="1" gradientTransform="matrix(0 804.602 -931 0 465.5 0)" gradientUnits="userSpaceOnUse">
      <stop stop-color="#62F2BE"/>
      <stop offset="1" stop-color="#62F2BE" stop-opacity="0"/>
    </radialGradient>
    <linearGradient id="paint0_linear" x1="465.5" x2="465.5" y1="804.602" y2="-851.165" gradientUnits="userSpaceOnUse">
      <stop stop-color="#000409"/>
      <stop offset="1" stop-color="#000409"/>
    </linearGradient>
  </defs>
</svg>
