<svg width="42" height="42" viewBox="0 0 42 42" fill="none" xmlns="http://www.w3.org/2000/svg">
<g filter="url(#filter0_d)">
<path d="M21.0005 6C12.719 6 6.00049 12.71 6.00049 20.9921C6.00049 29.2821 12.719 36 21.0005 36C29.2865 36 35.9993 29.282 35.9993 20.9921C35.9994 12.71 29.2865 6 21.0005 6ZM22.0694 29.3385C21.721 29.6486 21.3173 29.8044 20.8599 29.8044C20.3867 29.8044 19.9739 29.6513 19.6216 29.3447C19.2687 29.0386 19.0919 28.6101 19.0919 28.0595C19.0919 27.5711 19.263 27.1599 19.6041 26.8268C19.9452 26.4936 20.3636 26.327 20.8599 26.327C21.3483 26.327 21.7595 26.4936 22.0932 26.8268C22.4263 27.1599 22.5935 27.571 22.5935 28.0595C22.5929 28.6022 22.4184 29.0286 22.0694 29.3385ZM26.4134 18.5691C26.1458 19.0654 25.8279 19.4934 25.4592 19.8543C25.0915 20.2151 24.4304 20.8216 23.476 21.6742C23.2129 21.9148 23.0011 22.126 22.8425 22.3078C22.6838 22.4902 22.5652 22.6567 22.4878 22.8081C22.4099 22.9594 22.3501 23.1107 22.3077 23.262C22.2653 23.4128 22.2015 23.6788 22.1151 24.0588C21.9683 24.8652 21.507 25.2683 20.7317 25.2683C20.3285 25.2683 19.9897 25.1367 19.7136 24.873C19.4385 24.6093 19.3013 24.218 19.3013 23.6985C19.3013 23.0475 19.4024 22.4833 19.604 22.0062C19.8045 21.529 20.0727 21.1106 20.4059 20.7498C20.7396 20.389 21.1891 19.9609 21.7554 19.4646C22.2518 19.0303 22.6104 18.7029 22.8311 18.482C23.0525 18.2607 23.2383 18.0145 23.389 17.7435C23.541 17.4718 23.6155 17.1776 23.6155 16.8598C23.6155 16.2392 23.3857 15.7163 22.9238 15.29C22.4625 14.8637 21.8673 14.6502 21.1383 14.6502C20.2851 14.6502 19.6572 14.8653 19.254 15.2956C18.8508 15.7259 18.5103 16.3594 18.2308 17.1969C17.9665 18.0733 17.4662 18.5114 16.7304 18.5114C16.2962 18.5114 15.9297 18.3584 15.631 18.0523C15.3329 17.7462 15.1838 17.4148 15.1838 17.0579C15.1838 16.3216 15.4204 15.5751 15.893 14.819C16.3663 14.0629 17.0563 13.4367 17.9637 12.9409C18.8705 12.4445 19.9293 12.196 21.1383 12.196C22.2625 12.196 23.2547 12.4038 24.1152 12.8189C24.9758 13.2333 25.641 13.7975 26.1102 14.5112C26.5789 15.2243 26.8138 15.9997 26.8138 16.8371C26.8149 17.495 26.6811 18.0727 26.4134 18.5691Z" fill="#FFCC00"/>
</g>
<defs>
<filter id="filter0_d" x="0.000488281" y="0" width="41.9988" height="42" filterUnits="userSpaceOnUse" color-interpolation-filters="sRGB">
<feFlood flood-opacity="0" result="BackgroundImageFix"/>
<feColorMatrix in="SourceAlpha" type="matrix" values="0 0 0 0 0 0 0 0 0 0 0 0 0 0 0 0 0 0 127 0"/>
<feOffset/>
<feGaussianBlur stdDeviation="3"/>
<feColorMatrix type="matrix" values="0 0 0 0 1 0 0 0 0 0.8 0 0 0 0 0 0 0 0 0.5 0"/>
<feBlend mode="normal" in2="BackgroundImageFix" result="effect1_dropShadow"/>
<feBlend mode="normal" in="SourceGraphic" in2="effect1_dropShadow" result="shape"/>
</filter>
</defs>
</svg>
