<svg xmlns="http://www.w3.org/2000/svg" width="25" height="25" fill="none" viewBox="0 0 25 25">
  <path fill="#fff" fill-opacity=".35" d="M12.294 1C16.124 1 20 2.969 20 6.733v9.587c0 4.235-3.364 7.68-7.5 7.68S5 20.555 5 16.32V6.733C5 2.793 8.78 1 12.294 1zM6.412 16.32c0 3.438 2.73 6.234 6.088 6.234 3.357 0 6.088-2.796 6.088-6.234v-4.484c-1.26.39-3.633.981-6.439.981-1.796 0-3.768-.246-5.737-.94v4.443zm0-5.98c5.145 2.014 10.604.497 12.176-.024V6.733c0-2.785-3.243-4.287-6.294-4.287-2.928 0-5.882 1.325-5.882 4.287v3.607zm5.294-6.219v5.241c0 .4.316.723.706.723.39 0 .706-.324.706-.723v-5.24a.715.715 0 00-.706-.724.715.715 0 00-.706.723z"/>
  <path fill="#fff" d="M11.025 10.087c-1 .18-3.941-.663-3.941-.663-.765-5.963 3.94-6.024 3.94-6.024v6.687z"/>
</svg>
