<svg xmlns="http://www.w3.org/2000/svg" width="42" height="58" fill="none" viewBox="0 0 42 58">
  <path fill="#fff" fill-opacity=".05" d="M36.709 24.29v-8.582C36.709 7.047 29.662 0 21 0 12.34 0 5.292 7.047 5.292 15.708v8.582a6.05 6.05 0 00-4.834 5.918v21.75C.458 55.288 3.168 58 6.5 58h29a6.048 6.048 0 006.042-6.042v-21.75a6.05 6.05 0 00-4.833-5.918zM23.68 42.847l.933 6.523c.051.348-.053.699-.282.962-.23.263-.564.418-.914.418h-4.833c-.35 0-.684-.152-.914-.416a1.201 1.201 0 01-.283-.961l.933-6.523c-2.02-1.01-3.361-3.096-3.361-5.392 0-3.33 2.709-6.041 6.041-6.041a6.049 6.049 0 016.042 6.041c0 2.296-1.341 4.382-3.362 5.39zm5.779-18.68H12.542v-8.459c0-4.664 3.794-8.458 8.458-8.458s8.459 3.794 8.459 8.458v8.459z"/>
</svg>
