<svg xmlns="http://www.w3.org/2000/svg" width="110" height="106" fill="none" viewBox="0 0 110 106">
  <path fill="#000" d="M110 68.5c0 11.648 0 17.473-1.903 22.067a24.997 24.997 0 01-13.53 13.53C89.973 106 84.15 106 72.5 106h-35c-11.648 0-17.473 0-22.067-1.903a24.999 24.999 0 01-13.53-13.53C0 85.973 0 80.15 0 68.5V45.384C0 35.282 0 30.232 1.547 26.04a25 25 0 0111.251-13.162c3.899-2.18 8.888-2.967 18.866-4.538l35-5.514C79.906.74 86.526-.302 91.802 1.19a25 25 0 0115.905 13.595C110 19.765 110 26.466 110 39.87V68.5z"/>
</svg>
