<svg xmlns="http://www.w3.org/2000/svg" width="110" height="106" fill="none" viewBox="0 0 110 106">
  <path fill="#000" d="M0 37.5c0-11.648 0-17.473 1.903-22.067a25 25 0 0113.53-13.53C20.027 0 25.852 0 37.5 0h35c11.648 0 17.473 0 22.067 1.903a24.998 24.998 0 0113.53 13.53C110 20.027 110 25.852 110 37.5v23.116c0 10.102 0 15.152-1.547 19.343a25.004 25.004 0 01-11.251 13.162c-3.899 2.18-8.888 2.967-18.866 4.538l-35 5.514c-13.241 2.086-19.861 3.129-25.137 1.637A24.998 24.998 0 012.294 91.215C0 86.235 0 79.534 0 66.13V37.5z"/>
</svg>
