<svg width="969" height="669" viewBox="0 0 969 669" fill="none" xmlns="http://www.w3.org/2000/svg">
<path d="M0 52.4999C0 36.192 0 28.0381 2.66422 21.6061C6.2165 13.0301 13.0301 6.2165 21.6061 2.66422C28.0381 0 36.192 0 52.5 0L916.5 0C932.808 0 940.962 0 947.394 2.66422C955.97 6.2165 962.784 13.0301 966.336 21.6061C969 28.0381 969 36.192 969 52.5V616.202C969 632.872 969 641.208 966.253 647.726C962.591 656.416 955.577 663.261 946.799 666.71C940.216 669.297 931.883 669.093 915.218 668.686L51.2177 647.577C35.2701 647.187 27.2963 646.992 21.016 644.255C12.6422 640.605 6.02706 633.827 2.58303 625.366C0 619.021 0 611.045 0 595.092V52.4999Z" fill="#0D0D0D" fill-opacity="0.9"/>
</svg>
