<svg xmlns="http://www.w3.org/2000/svg" width="23" height="23" fill="none" viewBox="0 0 23 23">
  <path fill="#0D0D0D" fill-opacity=".3" d="M22.265 20.95l-5.474-5.694a9.256 9.256 0 002.179-5.97C18.97 4.166 14.804 0 9.684 0 4.564 0 .397 4.166.397 9.286c0 5.12 4.166 9.287 9.287 9.287 1.922 0 3.754-.58 5.32-1.68l5.516 5.736c.23.239.54.371.872.371a1.213 1.213 0 00.873-2.05zM9.684 2.422a6.871 6.871 0 016.863 6.863 6.871 6.871 0 01-6.863 6.864A6.871 6.871 0 012.82 9.286a6.871 6.871 0 016.864-6.864z"/>
</svg>
