<svg width="42" height="42" viewBox="0 0 42 42" fill="none" xmlns="http://www.w3.org/2000/svg">
<g filter="url(#filter0_d)">
<path d="M36 21C36 19.8843 35.1961 18.6948 34.205 18.344C33.2138 17.9932 32.2531 17.1341 31.9736 16.4566C31.694 15.7791 31.7665 14.4899 32.219 13.5403C32.6709 12.5907 32.3969 11.1806 31.6078 10.3915C30.8194 9.60248 29.4093 9.32913 28.4591 9.78099C27.5095 10.2329 26.2221 10.3066 25.5465 10.0271C24.8709 9.74752 24.0112 8.78554 23.6591 7.79442C23.3064 6.80331 22.1157 6 21 6C19.8843 6 18.6936 6.80331 18.3409 7.79442C17.9882 8.78554 17.1291 9.74752 16.4535 10.0271C15.7779 10.3066 14.4899 10.2329 13.5403 9.78099C12.5907 9.32913 11.1806 9.60248 10.3915 10.3915C9.60248 11.1806 9.32913 12.5901 9.78099 13.5403C10.2329 14.4905 10.3048 15.7785 10.024 16.4554C9.74318 17.1322 8.78554 17.9932 7.79442 18.344C6.80331 18.6948 6 19.8843 6 21C6 22.1157 6.80331 23.3064 7.79442 23.6591C8.78554 24.0112 9.74442 24.8721 10.0252 25.5477C10.306 26.2227 10.2329 27.5101 9.78099 28.4597C9.32913 29.4093 9.60248 30.8194 10.3915 31.6085C11.1806 32.3969 12.5901 32.6709 13.5403 32.219C14.4905 31.7671 15.7779 31.694 16.4535 31.9742C17.1298 32.2543 17.9882 33.2188 18.3409 34.2081C18.6936 35.1973 19.8843 36 21 36C22.1157 36 23.3064 35.1973 23.6591 34.2081C24.0112 33.2188 24.8696 32.2556 25.5452 31.9742C26.2209 31.6934 27.5101 31.7671 28.4591 32.2196C29.4093 32.6715 30.8194 32.3975 31.6078 31.6091C32.3969 30.82 32.6709 29.4099 32.219 28.4603C31.7671 27.5101 31.6928 26.2227 31.9723 25.5471C32.2519 24.8715 33.2145 24.0118 34.2056 23.6597C35.1967 23.3064 36 22.1157 36 21ZM21 26.5041C17.9566 26.5041 15.4959 24.0434 15.4959 21.0062C15.4959 17.9628 17.9566 15.5021 21 15.5021C24.0366 15.5021 26.4979 17.9628 26.4979 21.0062C26.4979 24.0434 24.0372 26.5041 21 26.5041Z" fill="#FFCC00"/>
</g>
<defs>
<filter id="filter0_d" x="0" y="0" width="42" height="42" filterUnits="userSpaceOnUse" color-interpolation-filters="sRGB">
<feFlood flood-opacity="0" result="BackgroundImageFix"/>
<feColorMatrix in="SourceAlpha" type="matrix" values="0 0 0 0 0 0 0 0 0 0 0 0 0 0 0 0 0 0 127 0"/>
<feOffset/>
<feGaussianBlur stdDeviation="3"/>
<feColorMatrix type="matrix" values="0 0 0 0 1 0 0 0 0 0.8 0 0 0 0 0 0 0 0 0.5 0"/>
<feBlend mode="normal" in2="BackgroundImageFix" result="effect1_dropShadow"/>
<feBlend mode="normal" in="SourceGraphic" in2="effect1_dropShadow" result="shape"/>
</filter>
</defs>
</svg>
